<?xml version="1.0" encoding="UTF-8"?>
<svg id="uuid-d05c9f07-62fd-42a9-91db-78c0e9c6f305" data-name="Calque 2" xmlns="http://www.w3.org/2000/svg" viewBox="0 0 141.12 243.17">
  <defs>
    <style>
      .uuid-d0eadd33-ed38-4ede-8655-f00739f2283c {
        fill: #fff;
        stroke-width: 0px;
      }
    </style>
  </defs>
  <g id="uuid-a01065fd-4dc8-4a80-ae9e-7a320ad8ae65" data-name="Calque 1">
    <g>
      <path class="uuid-d0eadd33-ed38-4ede-8655-f00739f2283c" d="m141.12,170.95c0-.12,0-.23,0-.35,0-.04,0-.08,0-.12,0-.63-.02-1.25-.06-1.86-.03-.66-.07-1.31-.14-1.96-.02-.27-.05-.53-.08-.8-.06-.65-.15-1.3-.26-1.94-.09-.65-.21-1.29-.34-1.92-.05-.27-.11-.54-.17-.81-.13-.64-.29-1.27-.45-1.9-.16-.63-.34-1.25-.53-1.87-.19-.62-.39-1.23-.61-1.84-.1-.27-.19-.54-.3-.81-.22-.61-.47-1.21-.72-1.8-.25-.6-.51-1.19-.8-1.77-.09-.2-.19-.4-.29-.6l-40.91-56.64c-.51-.71-.35-1.71.36-2.22.71-.51,1.71-.35,2.22.36l11.11,15.39c.05-.1.11-.2.16-.3.08-.14.15-.28.23-.42.08-.14.15-.28.23-.42.08-.14.15-.28.23-.42.08-.14.15-.28.23-.42.08-.14.15-.28.23-.42.08-.14.15-.28.23-.42.08-.14.15-.28.23-.42.08-.14.15-.28.23-.42.08-.14.15-.28.23-.42.08-.14.15-.28.23-.42.08-.14.15-.28.23-.42.08-.14.15-.28.23-.42.08-.14.15-.28.23-.42.08-.14.15-.28.23-.42.08-.14.15-.28.23-.42.08-.14.15-.28.23-.42.08-.14.15-.28.23-.42.08-.14.15-.28.23-.42.08-.14.15-.28.23-.42.08-.14.15-.28.23-.42.08-.14.15-.28.23-.42.08-.14.15-.28.23-.42.08-.14.15-.28.23-.42.08-.14.15-.28.23-.42.08-.14.15-.28.23-.42.08-.14.15-.28.23-.42.08-.14.15-.28.23-.42.08-.14.15-.28.23-.42.08-.14.15-.28.23-.42.08-.14.15-.28.23-.42.08-.14.15-.28.23-.42.08-.14.15-.28.23-.42.08-.14.15-.28.23-.42.08-.14.15-.28.23-.42.08-.14.15-.28.23-.42.08-.14.15-.28.23-.42.08-.14.15-.28.23-.42.08-.14.15-.28.23-.42.08-.14.15-.28.23-.42.08-.14.15-.28.23-.42.08-.14.15-.28.23-.42.08-.14.15-.28.23-.42.08-.14.15-.28.23-.42.08-.14.15-.28.23-.42.08-.14.15-.28.23-.42.08-.14.15-.28.23-.42.08-.14.15-.28.23-.42.08-.14.15-.28.23-.42.08-.14.15-.28.23-.42.08-.14.15-.28.23-.42.08-.14.15-.28.23-.42.08-.14.15-.28.23-.42.08-.14.15-.28.23-.42.08-.14.15-.28.23-.42.08-.14.15-.28.23-.42.08-.14.15-.28.23-.42.08-.14.15-.28.23-.42.08-.14.15-.28.23-.42.08-.14.15-.28.23-.42.08-.14.15-.28.23-.42.08-.14.15-.28.23-.42.08-.14.15-.28.23-.42.08-.14.15-.28.23-.42.08-.14.15-.28.23-.42.08-.14.15-.28.23-.42.08-.14.15-.28.23-.42.08-.14.15-.28.23-.42.08-.14.15-.28.23-.42.08-.14.15-.28.23-.42.08-.14.15-.28.23-.42.08-.14.15-.28.23-.42.08-.14.15-.28.23-.42.08-.14.15-.28.23-.42.08-.14.15-.28.23-.42.08-.14.15-.28.23-.42.08-.14.15-.28.23-.42.08-.14.15-.28.23-.42.08-.14.15-.28.23-.42.08-.14.15-.28.23-.42.08-.14.15-.28.23-.42.08-.14.15-.28.23-.42.08-.14.15-.28.23-.42.08-.14.15-.28.23-.42.08-.14.15-.28.23-.42.08-.14.15-.28.23-.42.08-.14.15-.28.23-.42.08-.14.15-.28.23-.42.08-.14.15-.28.23-.42.08-.14.15-.28.23-.42.08-.14.15-.28.23-.42.08-.14.15-.28.23-.42.08-.14.15-.28.23-.42.08-.15.16-.3.24-.45.3-.54.58-1.08.85-1.64.13-.27.26-.54.39-.81.28-.58.54-1.17.79-1.77.26-.59.49-1.19.71-1.81.23-.61.45-1.22.64-1.84.09-.27.18-.55.26-.82.19-.62.37-1.24.53-1.87.17-.63.32-1.26.45-1.9.06-.27.11-.54.17-.82.13-.63.24-1.28.33-1.92.1-.64.19-1.29.25-1.95.03-.27.05-.54.08-.81.07-.65.11-1.3.13-1.96.03-.6.05-1.2.05-1.8,0-.06,0-.12,0-.18,0-.1,0-.19,0-.29,0-.57-.02-1.13-.04-1.69,0-.26-.02-.52-.04-.79-.03-.66-.08-1.31-.15-1.95-.06-.65-.14-1.29-.23-1.93-.04-.26-.07-.51-.12-.77-.1-.64-.21-1.27-.34-1.89-.12-.63-.26-1.25-.42-1.86-.06-.25-.12-.5-.19-.74-.16-.61-.33-1.22-.52-1.82-.18-.6-.38-1.2-.59-1.79-.08-.24-.17-.48-.26-.71-.21-.59-.44-1.17-.69-1.74-.24-.58-.49-1.15-.76-1.71-.11-.23-.21-.46-.33-.68-.27-.56-.55-1.11-.85-1.65-.29-.55-.59-1.09-.91-1.61-.13-.22-.26-.43-.39-.65-.32-.53-.65-1.05-1-1.56-.14-.21-.28-.42-.43-.62-.35-.51-.71-1.01-1.08-1.5-.37-.5-.75-.98-1.14-1.45-.16-.2-.32-.39-.48-.58-.39-.48-.8-.94-1.22-1.39-.41-.46-.84-.91-1.28-1.34-.18-.18-.36-.36-.54-.53-.44-.44-.89-.86-1.35-1.27-.45-.42-.92-.82-1.4-1.21-.19-.16-.39-.32-.59-.48-.48-.39-.97-.77-1.47-1.14-.49-.37-1-.73-1.52-1.08-.51-.35-1.03-.7-1.56-1.02-.22-.14-.44-.27-.66-.4-.53-.33-1.07-.64-1.62-.93-.55-.3-1.1-.6-1.67-.87-.23-.12-.47-.23-.7-.34-.56-.27-1.14-.53-1.72-.77-.58-.25-1.16-.49-1.76-.7-.25-.09-.49-.18-.74-.27-.59-.22-1.2-.42-1.81-.6-.61-.19-1.22-.37-1.84-.53-.26-.07-.52-.14-.78-.2-.62-.16-1.25-.3-1.89-.42-.63-.13-1.27-.25-1.92-.34-.64-.1-1.29-.2-1.94-.26-.27-.03-.55-.06-.82-.09-.65-.07-1.31-.12-1.98-.15-.64-.04-1.28-.06-1.93-.06-.02,0-.05,0-.07,0-.14,0-.28-.01-.42-.01s-.28,0-.43.01c-.02,0-.05,0-.07,0-.65,0-1.3.03-1.94.06-.67.03-1.33.08-1.99.15-.29.03-.58.06-.87.09-.66.07-1.32.16-1.97.27-.66.1-1.31.21-1.95.35-.24.05-.47.09-.71.15-.16.03-.31.07-.47.1-.16.03-.31.07-.46.1-.16.03-.31.07-.46.1-.16.03-.31.07-.46.1-.16.03-.31.07-.46.1-.16.03-.31.07-.46.1-.16.03-.31.07-.46.1-.16.03-.31.07-.46.1-.16.03-.31.07-.46.1-.16.03-.31.07-.46.1-.16.03-.31.07-.46.1-.16.03-.31.07-.46.1-.16.03-.31.07-.46.1-.16.03-.31.07-.46.1-.16.03-.31.07-.46.1-.16.03-.31.07-.46.1-.16.03-.31.07-.46.1-.16.03-.31.07-.46.1-.16.03-.31.07-.46.1-.16.03-.31.07-.46.1-.16.03-.31.07-.46.1-.16.03-.31.07-.46.1-.16.03-.31.07-.46.1-.16.03-.31.07-.46.1-.16.03-.31.07-.46.1-.16.03-.31.07-.46.1-.16.03-.31.07-.46.1-.16.03-.31.07-.46.1-.16.03-.31.07-.46.1-.16.03-.31.07-.46.1-.16.03-.31.07-.46.1-.16.03-.31.07-.46.1-.16.03-.31.07-.46.1-.16.03-.31.07-.46.1-.16.03-.31.07-.46.1-.16.03-.31.07-.46.1-.16.03-.31.07-.46.1-.16.03-.31.07-.46.1-.16.03-.31.07-.46.1-.16.03-.31.07-.46.1-.16.03-.31.07-.46.1-.16.03-.31.07-.46.1-.16.03-.31.07-.46.1-.16.03-.31.07-.46.1-.16.03-.31.07-.46.1-.16.03-.31.07-.46.1-.16.03-.31.07-.46.1-.16.03-.31.07-.46.1-.16.03-.31.07-.46.1-.16.03-.31.07-.46.1-.16.03-.31.07-.46.1-.16.03-.31.07-.46.1-.16.03-.31.07-.46.1-.16.03-.31.07-.46.1-.16.03-.31.07-.46.1-.16.03-.31.07-.46.1-.16.03-.31.07-.46.1-.16.03-.31.07-.46.1-.16.03-.31.07-.46.1-.16.03-.31.07-.46.1-.16.03-.31.07-.46.1-.16.03-.31.07-.46.1-.16.03-.31.07-.46.1-.16.03-.31.07-.46.1-.16.03-.31.07-.46.1-.16.03-.31.07-.46.1-.16.03-.31.07-.46.1-.16.03-.31.07-.46.1-.16.03-.31.07-.46.1-.16.03-.31.07-.46.1-.16.03-.31.07-.46.1-.16.03-.31.07-.46.1-.16.03-.31.07-.46.1-.16.03-.31.07-.46.1-.17.03-.33.07-.5.11-.62.13-1.23.27-1.84.43-.63.16-1.25.33-1.86.52-.26.08-.53.16-.79.25-.61.19-1.22.4-1.81.62-.6.22-1.19.45-1.78.7-.25.1-.5.21-.75.32-.59.25-1.16.52-1.73.8-.57.27-1.13.56-1.69.86-.56.3-1.11.6-1.65.93-.23.14-.46.27-.69.42-.54.32-1.07.67-1.58,1.02-.52.35-1.04.71-1.54,1.08-.22.16-.43.32-.64.48-.5.37-.99.76-1.47,1.17-.48.39-.96.8-1.42,1.22-.2.18-.39.35-.59.54-.46.42-.91.86-1.35,1.3-.44.44-.87.89-1.29,1.35-.42.46-.84.92-1.24,1.41-.17.2-.34.4-.51.61-.4.48-.78.97-1.15,1.47-.38.5-.74,1-1.09,1.52-.15.22-.3.43-.44.65-.35.52-.68,1.05-1.01,1.58-.33.53-.64,1.07-.94,1.63-.13.23-.25.46-.38.7-.3.55-.58,1.11-.85,1.68-.28.56-.54,1.14-.78,1.72-.11.24-.21.49-.31.73-.25.58-.47,1.17-.68,1.77-.22.59-.43,1.19-.61,1.8-.2.61-.38,1.22-.54,1.84-.07.26-.14.51-.2.77-.16.62-.31,1.24-.43,1.88-.14.63-.26,1.26-.35,1.91-.04.27-.09.53-.12.8-.1.64-.18,1.29-.24,1.94-.07.65-.13,1.31-.16,1.97-.02.27-.03.55-.04.82-.03.58-.05,1.17-.05,1.76,0,.07,0,.13,0,.19,0,.1,0,.19,0,.29,0,.08,0,.16,0,.24,0,.08,0,.16,0,.24s0,.16,0,.24c0,.08,0,.16,0,.24s0,.16,0,.24c0,.08,0,.16,0,.24s0,.16,0,.24c0,.08,0,.16,0,.24s0,.16,0,.24c0,.08,0,.16,0,.24s0,.16,0,.24c0,.08,0,.16,0,.24s0,.16,0,.24c0,.08,0,.16,0,.24s0,.16,0,.24c0,.08,0,.16,0,.24s0,.16,0,.24c0,.08,0,.16,0,.24s0,.16,0,.24c0,.08,0,.16,0,.24s0,.16,0,.24c0,.08,0,.16,0,.24s0,.16,0,.24c0,.08,0,.16,0,.24s0,.16,0,.24c0,.08,0,.16,0,.24s0,.16,0,.24c0,.08,0,.16,0,.24s0,.16,0,.24c0,.08,0,.16,0,.24s0,.16,0,.24c0,.08,0,.16,0,.24s0,.16,0,.24c0,.08,0,.16,0,.24s0,.16,0,.24c0,.08,0,.16,0,.24s0,.16,0,.24c0,.08,0,.16,0,.24s0,.16,0,.24c0,.08,0,.16,0,.24s0,.16,0,.24c0,.08,0,.16,0,.24s0,.16,0,.24c0,.08,0,.16,0,.24s0,.16,0,.24c0,.08,0,.16,0,.24s0,.16,0,.24c0,.08,0,.16,0,.24s0,.16,0,.24c0,.08,0,.16,0,.24s0,.16,0,.24c0,.08,0,.16,0,.24s0,.16,0,.24c0,.08,0,.16,0,.24s0,.16,0,.24c0,.08,0,.16,0,.24s0,.16,0,.24c0,.08,0,.16,0,.24s0,.16,0,.24c0,.08,0,.16,0,.24s0,.16,0,.24c0,.08,0,.16,0,.24s0,.16,0,.24c0,.08,0,.16,0,.24s0,.16,0,.24c0,.08,0,.16,0,.24s0,.16,0,.24c0,.08,0,.16,0,.24s0,.16,0,.24c0,.08,0,.16,0,.24s0,.16,0,.24c0,.08,0,.16,0,.24s0,.16,0,.24c0,.08,0,.16,0,.24s0,.16,0,.24c0,.08,0,.16,0,.24s0,.16,0,.24c0,.08,0,.16,0,.24s0,.16,0,.24c0,.08,0,.16,0,.24s0,.16,0,.24c0,.08,0,.16,0,.24s0,.16,0,.24c0,.08,0,.16,0,.24s0,.16,0,.24c0,.08,0,.16,0,.24s0,.16,0,.24c0,.08,0,.16,0,.24s0,.16,0,.24c0,.08,0,.16,0,.24s0,.16,0,.24c0,.08,0,.16,0,.24s0,.16,0,.24c0,.08,0,.16,0,.24s0,.16,0,.24c0,.08,0,.16,0,.24s0,.16,0,.24c0,.08,0,.16,0,.24s0,.16,0,.24c0,.08,0,.16,0,.24s0,.16,0,.24c0,.08,0,.16,0,.24s0,.16,0,.24c0,.08,0,.16,0,.24s0,.16,0,.24c0,.08,0,.16,0,.24s0,.16,0,.24c0,.08,0,.16,0,.24s0,.16,0,.24c0,.08,0,.16,0,.24s0,.16,0,.24c0,.08,0,.16,0,.24s0,.16,0,.24c0,.08,0,.16,0,.24s0,.16,0,.24c0,.08,0,.16,0,.24s0,.16,0,.24c0,.08,0,.16,0,.24s0,.16,0,.24c0,.08,0,.16,0,.24s0,.16,0,.24c0,.08,0,.16,0,.24s0,.16,0,.24c0,.08,0,.16,0,.24s0,.16,0,.24c0,.08,0,.16,0,.24s0,.16,0,.24c0,.08,0,.16,0,.24s0,.16,0,.24c0,.08,0,.16,0,.24s0,.16,0,.24c0,.08,0,.16,0,.24s0,.16,0,.24c0,.08,0,.16,0,.24s0,.16,0,.24c0,.08,0,.16,0,.24s0,.16,0,.24c0,.08,0,.16,0,.24s0,.16,0,.24c0,.08,0,.16,0,.24s0,.16,0,.24c0,.08,0,.16,0,.24s0,.16,0,.24c0,.08,0,.16,0,.24s0,.16,0,.24c0,.08,0,.16,0,.24s0,.16,0,.24c0,.08,0,.16,0,.24s0,.16,0,.24c0,.08,0,.16,0,.24s0,.16,0,.24c0,.08,0,.16,0,.24s0,.16,0,.24c0,.08,0,.16,0,.24s0,.16,0,.24c0,.08,0,.16,0,.24s0,.16,0,.24c0,.08,0,.16,0,.24s0,.16,0,.24c0,.08,0,.16,0,.24s0,.16,0,.24c0,.08,0,.16,0,.24s0,.16,0,.24c0,.08,0,.16,0,.24s0,.16,0,.24c0,.08,0,.16,0,.24s0,.16,0,.24c0,.08,0,.16,0,.24s0,.16,0,.24c0,.08,0,.16,0,.24s0,.16,0,.24c0,.08,0,.16,0,.24s0,.16,0,.24c0,.08,0,.16,0,.24s0,.16,0,.24c0,.08,0,.16,0,.24s0,.16,0,.24c0,.08,0,.16,0,.24s0,.16,0,.24c0,.08,0,.16,0,.24s0,.16,0,.24c0,.08,0,.16,0,.24s0,.16,0,.24c0,.08,0,.16,0,.24s0,.16,0,.24c0,.08,0,.16,0,.24s0,.16,0,.24c0,.08,0,.16,0,.24s0,.16,0,.24c0,.08,0,.16,0,.24s0,.16,0,.24c0,.08,0,.16,0,.24s0,.16,0,.24c0,.08,0,.16,0,.24s0,.16,0,.24c0,.08,0,.16,0,.24s0,.16,0,.24c0,.08,0,.16,0,.24s0,.16,0,.24c0,.08,0,.16,0,.24s0,.16,0,.24c0,.08,0,.16,0,.24s0,.16,0,.24c0,.08,0,.16,0,.24s0,.16,0,.24c0,.08,0,.16,0,.24s0,.16,0,.24c0,.08,0,.16,0,.24s0,.16,0,.24c0,.08,0,.16,0,.24s0,.16,0,.24c0,.08,0,.16,0,.24s0,.16,0,.24c0,.08,0,.16,0,.24s0,.16,0,.24c0,.08,0,.16,0,.24s0,.16,0,.24c0,.08,0,.16,0,.24s0,.16,0,.24c0,.08,0,.16,0,.24s0,.16,0,.24c0,.08,0,.16,0,.24s0,.16,0,.24c0,.08,0,.16,0,.24s0,.16,0,.24c0,.08,0,.16,0,.24s0,.16,0,.24c0,.08,0,.16,0,.24s0,.16,0,.24c0,.08,0,.16,0,.24s0,.16,0,.24c0,.08,0,.16,0,.24s0,.16,0,.24c0,.08,0,.16,0,.24s0,.16,0,.24c0,.08,0,.16,0,.24s0,.16,0,.24c0,.08,0,.16,0,.24s0,.16,0,.24c0,.08,0,.16,0,.24s0,.16,0,.24c0,.08,0,.16,0,.24s0,.16,0,.24c0,.08,0,.16,0,.24s0,.16,0,.24c0,.08,0,.16,0,.24s0,.16,0,.24c0,.08,0,.16,0,.24s0,.16,0,.24c0,.08,0,.16,0,.24s0,.16,0,.24c0,.08,0,.16,0,.24s0,.16,0,.24c0,.08,0,.16,0,.24s0,.16,0,.24c0,.08,0,.16,0,.24s0,.16,0,.24c0,.08,0,.16,0,.24s0,.16,0,.24c0,.08,0,.16,0,.24s0,.16,0,.24c0,.08,0,.16,0,.24s0,.16,0,.24c0,.08,0,.16,0,.24s0,.16,0,.24c0,.08,0,.16,0,.24s0,.16,0,.24c0,.08,0,.16,0,.24s0,.16,0,.24c0,.08,0,.16,0,.24s0,.16,0,.24c0,.08,0,.16,0,.24s0,.16,0,.24c0,.08,0,.16,0,.24s0,.16,0,.24c0,.08,0,.16,0,.24s0,.16,0,.24c0,.08,0,.16,0,.24s0,.16,0,.24c0,.08,0,.16,0,.24s0,.16,0,.24c0,.08,0,.16,0,.24s0,.16,0,.24c0,.08,0,.16,0,.24s0,.16,0,.24c0,.08,0,.16,0,.24s0,.16,0,.24c0,.08,0,.16,0,.24s0,.16,0,.24c0,.08,0,.16,0,.24s0,.16,0,.24c0,.08,0,.16,0,.24s0,.16,0,.24c0,.08,0,.16,0,.24s0,.16,0,.24c0,.08,0,.16,0,.24s0,.16,0,.24c0,.08,0,.16,0,.24s0,.16,0,.24c0,.08,0,.16,0,.24s0,.16,0,.24c0,.08,0,.16,0,.24s0,.16,0,.24c0,.08,0,.16,0,.24s0,.16,0,.24c0,.08,0,.16,0,.24s0,.16,0,.24c0,.08,0,.16,0,.24s0,.16,0,.24c0,.08,0,.16,0,.24,0,0,0,.01,0,.02,5.59-4.65,12.77-7.45,20.6-7.45,3.76,0,7.36.65,10.71,1.83-2.06-13.36.1-26.58,6.44-39.31l.03-.07,28.66-51.4c.43-.77,1.4-1.04,2.16-.61.77.43,1.04,1.4.61,2.16l-28.64,51.37c-6.06,12.19-8.11,24.83-6.1,37.59l60.17,30.47c.78.4,1.1,1.35.7,2.14-.28.55-.84.87-1.42.87-.24,0-.49-.06-.72-.17l-59.37-28.47c-.5-.26-1-.5-1.51-.72l-.16-.08s0,0,0,0c-3.55-1.55-7.47-2.42-11.59-2.42-16.02,0-29.04,13.03-29.04,29.04,0,11.84,7.13,22.05,17.32,26.56,0,0,0,0,0,0l69.74,37.35c.14.02.28.05.41.07.29.05.57.09.86.13.65.1,1.31.18,1.97.24.66.07,1.32.13,1.99.16.28.02.56.03.84.04.56.03,1.12.04,1.69.04.11,0,.21,0,.32,0,.06,0,.11,0,.17,0,.62,0,1.23-.02,1.83-.06.66-.03,1.32-.07,1.98-.14.27-.02.54-.05.81-.08.65-.06,1.3-.15,1.94-.25.64-.09,1.28-.2,1.91-.33.26-.05.52-.1.78-.16.63-.13,1.26-.28,1.87-.44.62-.16,1.24-.33,1.84-.52.25-.07.5-.15.75-.24.61-.19,1.2-.4,1.79-.62.59-.21,1.18-.45,1.76-.69.58-.24,1.16-.49,1.72-.76.23-.11.46-.22.69-.33.56-.27,1.12-.56,1.66-.86.55-.29,1.09-.6,1.62-.92.22-.13.44-.26.65-.39.53-.32,1.05-.66,1.56-1.01.52-.34,1.02-.69,1.52-1.07.2-.15.41-.3.61-.45.5-.37.98-.75,1.45-1.15.48-.39.95-.79,1.4-1.2.19-.17.37-.33.56-.5.46-.41.9-.84,1.33-1.27.44-.43.87-.87,1.28-1.32.17-.18.34-.37.5-.55.41-.45.82-.92,1.2-1.39.16-.19.32-.38.47-.58.39-.47.76-.96,1.13-1.45.37-.49.73-.99,1.07-1.5.14-.2.28-.41.41-.62.34-.51.67-1.03.99-1.56.32-.52.63-1.06.93-1.6.12-.22.24-.44.36-.66.3-.54.57-1.09.84-1.65.27-.56.53-1.12.77-1.69.1-.23.2-.46.29-.69.24-.57.47-1.15.68-1.74.22-.58.43-1.17.61-1.77.08-.24.15-.48.23-.72.19-.6.36-1.2.51-1.82.16-.61.31-1.22.44-1.85.05-.25.11-.49.15-.74.13-.62.24-1.25.34-1.89.1-.63.19-1.27.26-1.91.03-.25.06-.51.08-.76.07-.64.12-1.29.15-1.95.04-.64.06-1.29.06-1.94,0,0,0-.02,0-.03,0-.15.01-.29.01-.44Z"/>
      <path class="uuid-d0eadd33-ed38-4ede-8655-f00739f2283c" d="m8.45,179.36c0,.08,0,.16,0,.24s0,.16,0,.24c0,.08,0,.16,0,.24s0,.16,0,.24c0,.08,0,.16,0,.24s0,.16,0,.24c0,.08,0,.16,0,.24s0,.16,0,.24c0,.08,0,.16,0,.24s0,.16,0,.24c0,.08,0,.16,0,.24s0,.16,0,.24c0,.08,0,.16,0,.24s0,.16,0,.24c0,.08,0,.16,0,.24s0,.16,0,.24c0,.08,0,.16,0,.24s0,.16,0,.24c0,.08,0,.16,0,.24s0,.16,0,.24c0,.08,0,.16,0,.24s0,.16,0,.24c0,.08,0,.16,0,.24s0,.16,0,.24c0,.08,0,.16,0,.24s0,.16,0,.24c0,.08,0,.16,0,.24s0,.16,0,.24c0,.08,0,.16,0,.24s0,.16,0,.24c0,.08,0,.16,0,.24s0,.16,0,.24c0,.08,0,.16,0,.24s0,.16,0,.24c0,.08,0,.16,0,.24s0,.16,0,.24c0,.08,0,.16,0,.24s0,.16,0,.24c0,.08,0,.16,0,.24s0,.16,0,.24c0,.08,0,.16,0,.24s0,.16,0,.24c0,.08,0,.16,0,.24s0,.16,0,.24c0,.08,0,.16,0,.24s0,.16,0,.24c0,.08,0,.16,0,.24s0,.16,0,.24c0,.08,0,.16,0,.24s0,.16,0,.24c0,.08,0,.16,0,.24s0,.16,0,.24c0,.08,0,.16,0,.24s0,.16,0,.24c0,.08,0,.16,0,.24s0,.16,0,.24c0,.08,0,.16,0,.24s0,.16,0,.24c0,.08,0,.16,0,.24s0,.16,0,.24c0,.08,0,.16,0,.24s0,.16,0,.24c0,.08,0,.16,0,.24s0,.16,0,.24c0,.08,0,.16,0,.24s0,.16,0,.24c0,.08,0,.16,0,.24s0,.16,0,.24c0,.08,0,.16,0,.24s0,.16,0,.24c0,.08,0,.16,0,.24s0,.16,0,.24c0,.08,0,.16,0,.24s0,.16,0,.24c0,.08,0,.16,0,.24s0,.16,0,.24c0,.08,0,.16,0,.24s0,.16,0,.24c0,.08,0,.16,0,.24s0,.16,0,.24c0,.08,0,.16,0,.24s0,.16,0,.24c0,.08,0,.16,0,.24s0,.16,0,.24c0,.08,0,.16,0,.24s0,.16,0,.24c0,.08,0,.16,0,.24s0,.16,0,.24c0,.08,0,.16,0,.24s0,.16,0,.24c0,.08,0,.16,0,.24s0,.16,0,.24c0,.08,0,.16,0,.24s0,.16,0,.24c0,.08,0,.16,0,.24s0,.16,0,.24c0,.08,0,.16,0,.24s0,.16,0,.24c0,.08,0,.16,0,.24s0,.16,0,.24c0,.08,0,.16,0,.24s0,.16,0,.24c0,.08,0,.16,0,.24s0,.16,0,.24c0,.08,0,.16,0,.24s0,.16,0,.24c0,.08,0,.16,0,.24s0,.16,0,.24c0,.08,0,.16,0,.24s0,.16,0,.24c0,.08,0,.16,0,.24s0,.16,0,.24c0,.08,0,.16,0,.24s0,.16,0,.24c0,.08,0,.16,0,.24s0,.16,0,.24c0,.08,0,.16,0,.24s0,.16,0,.24c0,.08,0,.16,0,.24s0,.16,0,.24c0,.08,0,.16,0,.24s0,.16,0,.24c0,.08,0,.16,0,.24s0,.16,0,.24c0,.08,0,.16,0,.24s0,.16,0,.24c0,.08,0,.16,0,.24s0,.16,0,.24c0,.08,0,.16,0,.24s0,.16,0,.24c0,.08,0,.16,0,.24s0,.16,0,.24c0,.08,0,.16,0,.24,0,17.8,14.43,32.22,32.22,32.22s31.24-13.49,32.16-30.47L8.44,179.18c0,.06,0,.12,0,.18Z"/>
    </g>
  </g>
</svg>